# xmcd CD database file
#
# Track frame offsets:
#	150
#	11327
#	28562
#	38582
#	50692
#	62282
#	73802
#	87640
#	102135
#	112765
#	122367
#	136842
#	154732
#	168877
#	184700
#	198467
#	212115
#	224987
#	235997
#	248362
#	260977
#
# Disc length: 3631 seconds
#
# Revision: 3
# Processed by: cddbd v1.5.2PL0 Copyright (c) Steve Scherf et al.
# Submitted via: CDex 1.70beta2
#
DISCID=220e2d15
DTITLE=Jim Croce - Stories and Characters - The Best of Jim Croce
DYEAR=1997
DGENRE=Rock
TTITLE0=Time in a bottle
TTITLE1=Operator (That's not the way it feels)
TTITLE2=Alabama rain
TTITLE3=Dreamin' again
TTITLE4=It doesn't have to be that way
TTITLE5=I'll have to say I love you in a song
TTITLE6=Lover's cross
TTITLE7=These dreams
TTITLE8=A long time ago
TTITLE9=Photographs and memories
TTITLE10=I got a name
TTITLE11=Mississippi lady
TTITLE12=New York's not my home
TTITLE13=Roller derby queen
TTITLE14=You don't mess around with Jim
TTITLE15=Bad, bad Leroy Brown
TTITLE16=Walkin' back to Georgia
TTITLE17=Speedball tucker
TTITLE18=Rapid boy (The stock car boy)
TTITLE19=One less set of footprints
TTITLE20=Workin' at the car wash blues
EXTD=Thanks to: Paul Holland YEAR: 1997
EXTT0=
EXTT1=
EXTT2=
EXTT3=
EXTT4=
EXTT5=
EXTT6=
EXTT7=
EXTT8=
EXTT9=
EXTT10=
EXTT11=
EXTT12=
EXTT13=
EXTT14=
EXTT15=
EXTT16=
EXTT17=
EXTT18=
EXTT19=
EXTT20=
PLAYORDER=
